<mxfile host="app.diagrams.net" modified="2020-07-16T15:23:12.935Z" agent="5.0 (Windows NT 10.0; Win64; x64) AppleWebKit/537.36 (KHTML, like Gecko) Chrome/83.0.4103.116 Safari/537.36" etag="u4xWSEOl8PBh66ALHwdY" version="13.3.7" type="github">
  <diagram id="maHg7SsvtQUFNXzrpQvo" name="Page-1">
    <mxGraphModel dx="1355" dy="802" grid="1" gridSize="10" guides="1" tooltips="1" connect="1" arrows="1" fold="1" page="1" pageScale="1" pageWidth="850" pageHeight="1100" math="0" shadow="0">
      <root>
        <mxCell id="0" />
        <mxCell id="1" parent="0" />
        <mxCell id="tzyq7luY2qThDf7m2LUu-2" value="" style="rounded=1;whiteSpace=wrap;html=1;fillColor=none;align=left;" parent="1" vertex="1">
          <mxGeometry x="275" y="150" width="210" height="270" as="geometry" />
        </mxCell>
        <mxCell id="zRLsIuaNsJf3XsUWLVfJ-1" value="" style="rounded=0;whiteSpace=wrap;html=1;fillColor=#1ba1e2;strokeColor=#006EAF;fontColor=#ffffff;" parent="1" vertex="1">
          <mxGeometry x="329" y="190" width="61" height="40" as="geometry" />
        </mxCell>
        <mxCell id="zRLsIuaNsJf3XsUWLVfJ-2" value="" style="rounded=0;whiteSpace=wrap;html=1;fillColor=#e51400;strokeColor=#B20000;fontColor=#ffffff;" parent="1" vertex="1">
          <mxGeometry x="390" y="190" width="55" height="40" as="geometry" />
        </mxCell>
        <mxCell id="zRLsIuaNsJf3XsUWLVfJ-4" value="" style="rounded=0;whiteSpace=wrap;html=1;align=left;" parent="1" vertex="1">
          <mxGeometry x="325" y="270" width="120" height="100" as="geometry" />
        </mxCell>
        <mxCell id="zRLsIuaNsJf3XsUWLVfJ-5" value="br-int" style="whiteSpace=wrap;html=1;aspect=fixed;fillColor=#f5f5f5;strokeColor=#666666;fontColor=#333333;" parent="1" vertex="1">
          <mxGeometry x="365" y="280" width="40" height="40" as="geometry" />
        </mxCell>
        <mxCell id="zRLsIuaNsJf3XsUWLVfJ-6" value="br-phy-1" style="rounded=0;whiteSpace=wrap;html=1;fillColor=#1ba1e2;strokeColor=#006EAF;fontColor=#ffffff;" parent="1" vertex="1">
          <mxGeometry x="329" y="330" width="50" height="30" as="geometry" />
        </mxCell>
        <mxCell id="zRLsIuaNsJf3XsUWLVfJ-7" value="br-phy-2" style="rounded=0;whiteSpace=wrap;html=1;fillColor=#e51400;strokeColor=#B20000;fontColor=#ffffff;" parent="1" vertex="1">
          <mxGeometry x="390" y="330" width="50" height="30" as="geometry" />
        </mxCell>
        <mxCell id="tzyq7luY2qThDf7m2LUu-13" value="" style="shape=stencil(jVnLchw3DPyavaL4Bnl2nP9wleVoK4rkkpXX36cna44W4EyXbus1WkUCjUaDe8mffjx++f5wSeHH2+vL7w9/X7++PV7yL5eUrs+PD6/XN3y65M+X/Onby+vDb68vfz5/vf37+5ctcvv0x8tf21/454YLEsIGSuHf+YWm/7/49Rb+dH024b278J/4w/AssflwPQ8v0ocJjxL7eXiTVF14J4fpkpIJT9LieXgMUrOJz1IriU9SbSqLtEzii8Ri4qt09verqM1Ok0FKFVXUJl+lk+THIWrP06WR7CPbwaZ/SBkkPona/CDDmdQL+QvRAqKkQgBVmr0xahJISpGRHDygNwJASiyHYqacy0GSO1IRJUfKUartMNS9kbTm7Gkd2yTiMaBItXUGUzJphFxnTu4Agx1JJaoF9FmZY0CfzNkBQzLpnRIkZg9g5C5RiiUrpCgRdpcsYXgAa4dSpFi2okES6c/SfP8AwASjdAn20mipSC5dF3HfepBUukYZtnDQvETYWrOM6gFKqFHr1KwdAJUkbK0q1R2pSmGA4ekNnQxsiuxD5g7QyR0aNMLVQae0HQNADXcH9AMRstYWtuJW7EhoIJtWCE8j1NB9EO+ASKehQkltWnOi41AX9YZSMXprnaKyAwplq0KFrC7lSmVGx7ziDmiUfD16hwFpq6RwPXm2vkvbMaBIckcadCj26l3JpoUkSx1kLh7AfEPv3rRBPJUUrg9P75JolkbwTgZqmwmXBg5gWxRqGxlgUW8ABqHGKFMjdgDoSNI6qm8g6Dmzb2OR+6LUOgz1HYcB0ImQDfUGaxsAhHyjS7aVxgAorHDD93RNVO4ByM7j7q73DNBsWjExGnO5YRlyGBmR5PUI0enSc4BoYV7sw4hICXiEyLQYRwiQnDTqmlwMGmaC1vI1pXK2EgSTiWn42HeMHTBmr58BnAnCKGOjEV2R7aU1UgOBRs32SNvsY0dapAAA5vGhTmqlQLFaMnVKU+J3QJm3OlNY548xXQMbXOo9DQCVXLovS4G2ueocA/bt+Q5A1/VlE8LAL8zTLONd+6TjBw0EANTTgBrJA1hXo0yu43DIzADZSzIAg2QJZFZ76R7oNod2ycMD2OBaveW7LfqgewWATYm2vITAR7H1D1raFwBb/9alYKMj6Yfa5vTfAYWKAOZaWwBKKr3uWmgp5vzWbQ6AwXbeRSrhBSuhxrqRQhbY+0lZXBMATIxhDIs7Up9KdbboO6sIAFtsYJ89l8a02GePFe7ZDgD6QrM4cKht4i807tEUAKYa2KySvQMMMH3SCX6r3iYGe7sbc+7fAZgIpEUqMcTYrpUWqYTFZj2Ntd7RG3OVWcX1eRCAwe6wPEBi1LONNC3aCjPBLNn74/kO6HQ5W99cAVBm+obvOFiuwnzlot53vvEnAh/efx64/bKw/9/Z7wZlsSRIL5OvDwDMOb5dn57cWfDB/6yBr24/ieTP/wE=);fillColor=#1ba1e2;strokeWidth=2;strokeColor=#006EAF;fontColor=#ffffff;dashed=1;" parent="1" vertex="1">
          <mxGeometry x="348" y="230" width="38" height="102" as="geometry" />
        </mxCell>
        <mxCell id="tzyq7luY2qThDf7m2LUu-14" value="eth" style="rounded=0;whiteSpace=wrap;html=1;strokeWidth=2;fillColor=none;" parent="1" vertex="1">
          <mxGeometry x="320" y="420" width="40" height="20" as="geometry" />
        </mxCell>
        <mxCell id="tzyq7luY2qThDf7m2LUu-20" value="&lt;font style=&quot;font-size: 14px&quot;&gt;&lt;b&gt;Host&lt;/b&gt;&lt;/font&gt;" style="text;html=1;strokeColor=none;fillColor=none;align=center;verticalAlign=middle;whiteSpace=wrap;rounded=0;dashed=1;" parent="1" vertex="1">
          <mxGeometry x="299" y="130" width="40" height="20" as="geometry" />
        </mxCell>
        <mxCell id="tzyq7luY2qThDf7m2LUu-24" value="&lt;font style=&quot;font-size: 14px&quot;&gt;&lt;b style=&quot;font-size: 12px&quot;&gt;OVS&lt;/b&gt;&lt;/font&gt;" style="text;html=1;strokeColor=none;fillColor=none;align=center;verticalAlign=middle;whiteSpace=wrap;rounded=0;dashed=1;" parent="1" vertex="1">
          <mxGeometry x="325" y="270" width="40" height="20" as="geometry" />
        </mxCell>
        <mxCell id="tzyq7luY2qThDf7m2LUu-28" value="" style="shape=stencil(lVjbUlsxDPyavGpsy5bsZ0r/gxnSkmlLGKC3v68yqQ9YdrbpWzhoz9F1tfaOb14e7p72uxReXp+PX/Y/D/evDzv+sEvp8Piwfz682q8d3+745tPxef/5+fj98f7899PdyfL069vxx+kNv864GAKFcIKl8Pv8aHvw8Qz4enh8B2iVVJ09C7AvVGSwj1QY2CcKoz1TTMA+UKrOvoL3V6UyxlsoFGCfKY3+CGXgT42UR3+UtF2210ZxzKc9AP6oELcxn1aACgBMEkfA5uIaEInHDMVERS8DpFIbQ45MBeRIhGSMOWbokmTiMgIK5QwAsXu8AaTXcQkolaoLWilFABBf51h7JdeATMIjwCoNOrUk4ugBDbRGCZTHVrXZbGCWc/WtYcNZQZaykLovJBJQuFyIxzrYeAoIOm+dswGs9qCXcupJ3AAFElgOpNkDKvgCN998RgECmo+VmsuS9sqsAeK7NdXOamtAoTiSgLFGAmll9u3Nob9iDUhUR5c4Ypcm3rNXJJQl2zNjDOZkAFmynGjwgApcsqy7AeLcX7EGFGpjL1miEZFZb5axl6yUDII+LbOxl6xZIgp6IuNTd4GgTxzhgq49qjWg+omzhq+gNYwY3cTZSFXAS8bVbuJy7O24BnB3YAOkTjxrQPJL3XhEQeFsBcYxSzn3nbSWGf11m70tIJCkSuxyJL0Z1wuLmkuR4uXgVZVxeQD+ZK8ycqOAprPP7qaSsCycdpXZN1Qxr2JK7H27tA9+MouRBbR3q9DWbwT+Tyq4FMiPs71AepztFaq22f9KGfRn7BO42bfeIRfq67hUAgnSR77fTGEpkql+fUiC1GsiVsYABGvIOEnCk0gEHT3znBRMvRNXGwBR77xv3oTulTtTtEd1pVAQLDqNaGUCNMQTk8KTf4jOaZIVi84ytZJi0TlLczVxgrg0dWrbANwPrZeOF3UsnJpQAOw7H2DU1gFyqfpTrZ3jkGCzrOfsAYggLetOaauSgDrMxzzFotOynpIHII43gLjWsDWKj6pu4mrAMUxnWzt+I9qzuoYxS9WkA0rrDNi+eS0Ai84FoOAbgxkgULAtAFhDLgCtP7kS0ALk1gUgwvP5ApDg+XwBYEiVC0CGEmwBsJPnf6W1CRRhSwBi7wVAIVUuABXTzAR4d4P4F2E/3q4bzzeV7//nrybt0flak2//AA==);fillColor=#e51400;dashed=1;strokeWidth=2;strokeColor=#B20000;fontColor=#ffffff;" parent="1" vertex="1">
          <mxGeometry x="396" y="230" width="27" height="101.5" as="geometry" />
        </mxCell>
        <mxCell id="tzyq7luY2qThDf7m2LUu-34" value="" style="endArrow=none;dashed=1;html=1;strokeWidth=2;fillColor=#1ba1e2;strokeColor=#006EAF;" parent="1" edge="1">
          <mxGeometry width="50" height="50" relative="1" as="geometry">
            <mxPoint x="45" y="560" as="sourcePoint" />
            <mxPoint x="85" y="560" as="targetPoint" />
          </mxGeometry>
        </mxCell>
        <mxCell id="tzyq7luY2qThDf7m2LUu-35" value="" style="endArrow=none;dashed=1;html=1;strokeWidth=2;fillColor=#e51400;strokeColor=#B20000;" parent="1" edge="1">
          <mxGeometry width="50" height="50" relative="1" as="geometry">
            <mxPoint x="230" y="560" as="sourcePoint" />
            <mxPoint x="270" y="560" as="targetPoint" />
          </mxGeometry>
        </mxCell>
        <mxCell id="tzyq7luY2qThDf7m2LUu-36" value="" style="endArrow=none;html=1;strokeWidth=2;fillColor=#1ba1e2;strokeColor=#006EAF;" parent="1" edge="1">
          <mxGeometry width="50" height="50" relative="1" as="geometry">
            <mxPoint x="45" y="610" as="sourcePoint" />
            <mxPoint x="85" y="610" as="targetPoint" />
          </mxGeometry>
        </mxCell>
        <mxCell id="tzyq7luY2qThDf7m2LUu-37" value="" style="endArrow=none;html=1;strokeWidth=2;fillColor=#e51400;strokeColor=#B20000;" parent="1" edge="1">
          <mxGeometry width="50" height="50" relative="1" as="geometry">
            <mxPoint x="230" y="610" as="sourcePoint" />
            <mxPoint x="270" y="610" as="targetPoint" />
          </mxGeometry>
        </mxCell>
        <mxCell id="tzyq7luY2qThDf7m2LUu-38" value="Blue tenant traffic" style="text;html=1;strokeColor=none;fillColor=none;align=center;verticalAlign=middle;whiteSpace=wrap;rounded=0;" parent="1" vertex="1">
          <mxGeometry x="95" y="550" width="110" height="20" as="geometry" />
        </mxCell>
        <mxCell id="tzyq7luY2qThDf7m2LUu-39" value="Red tenant traffic" style="text;html=1;strokeColor=none;fillColor=none;align=center;verticalAlign=middle;whiteSpace=wrap;rounded=0;" parent="1" vertex="1">
          <mxGeometry x="280" y="550" width="110" height="20" as="geometry" />
        </mxCell>
        <mxCell id="tzyq7luY2qThDf7m2LUu-40" value="Blue VxLAN tunnel" style="text;html=1;strokeColor=none;fillColor=none;align=center;verticalAlign=middle;whiteSpace=wrap;rounded=0;" parent="1" vertex="1">
          <mxGeometry x="95" y="600" width="110" height="20" as="geometry" />
        </mxCell>
        <mxCell id="tzyq7luY2qThDf7m2LUu-41" value="Red VxLAN tunnel" style="text;html=1;strokeColor=none;fillColor=none;align=center;verticalAlign=middle;whiteSpace=wrap;rounded=0;" parent="1" vertex="1">
          <mxGeometry x="280" y="600" width="110" height="20" as="geometry" />
        </mxCell>
        <mxCell id="5VQv-MnDb6l_c6nZY82K-2" value="eth" style="rounded=0;whiteSpace=wrap;html=1;strokeWidth=2;fillColor=none;" parent="1" vertex="1">
          <mxGeometry x="396" y="420" width="40" height="20" as="geometry" />
        </mxCell>
        <mxCell id="5VQv-MnDb6l_c6nZY82K-3" value="" style="shape=stencil(lVfLctswDPwaXTEkQfBxTtP/yEzc2tPWzjhO2/x9oNHIDUF7K95keVcSHrsAJ3543T+97KbgXi/n04/dn8PzZT/xlymEw3G/Ox8uejXx48QP307n3ffz6e34vPx+eZqR89Wv0+/5CX8XnneOnJtpwb0vt643vi6En4fjJ0LNFKPB5wLwTK40+EDe38eXSs43eCaOAJ9JnMFXAXimJA1eKKT7+FyJucEnEhBvFoptvJlKBXhNR2jwmgDwPalQbr/fa8HAC5JQyS3BwwqkQLWNwOs38n2CVEptCJ7JgxgkUW5z6iM5UGRhKmIJFcQgjmpqCUIVvCEW26Y+rY+4TRDytSXkNW+3CYG4bWx/bfWbBK4U27TO0gR14EzOEDw5oAWOtnAqTgdi4EDBWwJSGzsKbZZmeYI3zGoxdiHQj0KnNxUoB0AIlFrD0HcmkFbNuqn0LFGgOG0EU2lNg4BempvZeFhYS3mbEDrT07QCQqdQFkoZuJKts/ZWRBZgy6zN61EjWT1HB+UZKLbxqpoE4L0dUjESgy5ytoligsrphmbUMQS03OPravvb8GpoGeS/xwc4NXt8hC3d49VOh/B5HVsb8XXt8G345OEU7/EMvbfH43nT4xPUV48vFIbwlfJIfbPmZySfupaUkXhzXIfVRrysPr8Rn1cT3ogvY3rUNa+MfH/RHWok/0UdbKQ/5zV1RO8lUhmpbxG43XR+WNJ/9G7WrVLgBtj5c8Hzwq/T7bokO9jP3byo2v9oxtuto16fcGd+cbtT6zFHgH67eVcj1G+0h44q0H/iqtYrXusF57U3z1f/Af4slE28FepdNyqzHDt7rNSLf4fS5Tz7+T97gNVby+GXHz8A);fillColor=#1ba1e2;strokeWidth=3;strokeColor=#006EAF;fontColor=#ffffff;" parent="1" vertex="1">
          <mxGeometry x="334.97" y="360" width="17.93" height="60.45" as="geometry" />
        </mxCell>
        <mxCell id="5VQv-MnDb6l_c6nZY82K-5" value="&lt;b&gt;VM&lt;/b&gt;" style="text;html=1;strokeColor=none;fillColor=none;align=center;verticalAlign=middle;whiteSpace=wrap;rounded=0;" parent="1" vertex="1">
          <mxGeometry x="369" y="200" width="40" height="20" as="geometry" />
        </mxCell>
        <mxCell id="5VQv-MnDb6l_c6nZY82K-6" value="" style="shape=stencil(lZZNctswDIVPoy2GJEASWKfpPTITt/YktTOOm5/blxoljUHKr/WOlvEJ4sMDyIlvnrd3T5sphefT8fCwed3dn7YTf5tS2u23m+Pu1FYT30588+Nw3Pw8Hn7v75ffT3dz5Lz6dXiZ3/C2cIFCmKEU3rsH35fwx93+LFyoFhfOFOLl8JhIfXwhq5fjW3aJLt6oonim5ONjwAmMxH9QZMr5MsCZapchwwwSKKoHlEIBgFARDxgVBYD2m06RIl8GcqRqHkiUQYYsvUqt8AFlaFv0e0iZBGQooZd1doYAQCh1e1BYuKJUs7dqqwyoQ03EyQMRmq9mUv9JjL1UB/M1d33kXAWUe1kZq6SDWxmrpNbLKlgli2R+DxKpgBFg3NdBGPaDZcp+03OHAC9Z7QsnBfaDDQ0kFfaDGcUOMNgPMQxzNQfYEGtEhLVeI5jYriOE9MocWNs1opIAk68R+mnj/yUKPrbWiH/Ydih5weKOpiq4ua2QsAewUDYcFMUoI2A4fSueaK25Q/WAUASbVv3U5C9QYIZxQFXcSW0EmldJ8WGniaJXSfG8ae9LfkApbgoNxF5WLdBL49z/0m0daEPb18Gwv1eASIKOohFIZNdlEOLrMrTzEqk0ArgfVgA8N0bgbC58EG3xdVVebtnn//XX6vZouZLz7R8=);fillColor=#e51400;strokeWidth=3;strokeColor=#B20000;fontColor=#ffffff;" parent="1" vertex="1">
          <mxGeometry x="408.76" y="360" width="9.66" height="59.76" as="geometry" />
        </mxCell>
        <mxCell id="qyXo9Zuo31Ht6z9j_knl-1" value="" style="shape=stencil(lVjLjtswDPwaXwlJ1Ivn7fY/FthsEzRNFtn09felayCFSWfU3ByHI1MkZ0hp4qeP/cv7bkrh43o5f939PLxe9xN/mlI6nPa7y+GqTxM/T/z0dr7svlzO30+vy+/3l9lyfvp2/jGv8GvBBQphBqXwe3mRqPHfF58X8+PhtDLP+SHzvl6dqaf75pFKWplX6v2+ebK+d+oVmde2Mo+6QLlvz1TWy8dCFbiTKZr1hVpD9p3XsWTof7H+pwaDX4nX63OkmO/bNxtOzhQE2Zv4cKUC7Ltbv1MF/nS7ftbqA/kSu37G+RW3PkN/xOYrF+hPDDYBuUGHFGAynHGEYrQlV3CIFGD2UBIlUKNKEROkkokRhdm5hKsiOtoUTGNloQFUXNexOgBOdGw2cVW5hFxypVoHexCb6RbhF2YlXbvU8B5U7cymG1YvFR+z6YblxetXw3qngmSi1CNsB6oAxqWOFZKD3XTHm2bfQm6qtg3IDiCQD6qJBiCBJAKAk0nBFM1u04KjlB2npVACmc7ZVqtUyLjsWok0vAfHB+kUQeJUtkxpCGZccaohqv9AKosrvhhuw9J2v41uwBghiosTppDKio0TLr/mZEBwS1GVsMWBZaA57ZPBGBBd6gqM0kx6A2DKgEJKegvA6trdKDNgde/2C71CKRM3Zw+kTD22gAClTLzgY86J69Rt4JLr1C1A3RBX3nUQJTfiaqdGMiC+tWPGKcB8oeCZTJyUDQYgBdh5Bnc5cdNGxsq0AcBNawOABX8DMMiDB+CZzANY4GFjAzCoJQ/ID4aVcePdAAyKzwH0DCUPuaSHQDQ8bAAGnPaAR6s1DTdtj9G4tSvAtlE8fSvAiHEcZNqNWBFfY8zDiO3sOA++KWLRcP1kwGhxIoObg7hSJUH0dPPY4JgYXH+zVaEP/+6gluur23/3Lqeyc7vi2vkPwMqPt8PxaHzRB3t3pq+Wezd+/gM=);fillColor=none;strokeWidth=5;" vertex="1" parent="1">
          <mxGeometry x="340" y="440" width="75" height="61.5" as="geometry" />
        </mxCell>
      </root>
    </mxGraphModel>
  </diagram>
</mxfile>
